<svg width="138" height="34" viewBox="0 0 138 34" fill="none" xmlns="http://www.w3.org/2000/svg">
<path d="M13.416 10.02V0.84H18.856V26H13.416V24.3C12.056 25.66 10.3673 26.34 8.35 26.34C5.99267 26.34 4.00933 25.4673 2.4 23.722C0.813333 21.954 0.02 19.7667 0.02 17.16C0.02 14.5533 0.813333 12.3773 2.4 10.632C4.00933 8.864 5.99267 7.98 8.35 7.98C10.3673 7.98 12.056 8.66 13.416 10.02ZM6.752 20.186C7.5 20.9793 8.42933 21.376 9.54 21.376C10.6507 21.376 11.5687 20.9793 12.294 20.186C13.042 19.37 13.416 18.3613 13.416 17.16C13.416 15.9587 13.042 14.9613 12.294 14.168C11.5687 13.352 10.6507 12.944 9.54 12.944C8.42933 12.944 7.5 13.352 6.752 14.168C6.02667 14.9613 5.664 15.9587 5.664 17.16C5.664 18.3613 6.02667 19.37 6.752 20.186ZM21.2288 3.56C21.2288 2.676 21.5462 1.91666 22.1808 1.282C22.8155 0.647331 23.5748 0.329998 24.4588 0.329998C25.3428 0.329998 26.1022 0.647331 26.7368 1.282C27.3715 1.91666 27.6888 2.676 27.6888 3.56C27.6888 4.42133 27.3715 5.18067 26.7368 5.838C26.1022 6.47267 25.3428 6.79 24.4588 6.79C23.5748 6.79 22.8155 6.47267 22.1808 5.838C21.5462 5.18067 21.2288 4.42133 21.2288 3.56ZM27.1788 26H21.7388V8.32H27.1788V26ZM42.7769 9.952V8.32H48.2169V23.96C48.2169 26.5667 47.2989 28.7427 45.4629 30.488C43.6495 32.256 41.3942 33.14 38.6969 33.14C36.9062 33.14 35.2969 32.7207 33.8689 31.882C32.4409 31.0433 31.3302 29.9327 30.5369 28.55L35.3649 25.932C36.1355 27.4507 37.2462 28.21 38.6969 28.21C39.8302 28.21 40.7935 27.802 41.5869 26.986C42.3802 26.1927 42.7769 25.184 42.7769 23.96V23.688C41.3942 25.0027 39.7055 25.66 37.7109 25.66C35.3535 25.66 33.3702 24.81 31.7609 23.11C30.1742 21.41 29.3809 19.3133 29.3809 16.82C29.3809 14.3267 30.1742 12.23 31.7609 10.53C33.3702 8.83 35.3535 7.98 37.7109 7.98C39.7055 7.98 41.3942 8.63733 42.7769 9.952ZM36.1129 19.608C36.8609 20.3333 37.7902 20.696 38.9009 20.696C40.0115 20.696 40.9295 20.3333 41.6549 19.608C42.4029 18.86 42.7769 17.9307 42.7769 16.82C42.7769 15.7093 42.4029 14.7913 41.6549 14.066C40.9295 13.318 40.0115 12.944 38.9009 12.944C37.7902 12.944 36.8609 13.318 36.1129 14.066C35.3875 14.7913 35.0249 15.7093 35.0249 16.82C35.0249 17.9307 35.3875 18.86 36.1129 19.608ZM50.5897 3.56C50.5897 2.676 50.907 1.91666 51.5417 1.282C52.1764 0.647331 52.9357 0.329998 53.8197 0.329998C54.7037 0.329998 55.463 0.647331 56.0977 1.282C56.7324 1.91666 57.0497 2.676 57.0497 3.56C57.0497 4.42133 56.7324 5.18067 56.0977 5.838C55.463 6.47267 54.7037 6.79 53.8197 6.79C52.9357 6.79 52.1764 6.47267 51.5417 5.838C50.907 5.18067 50.5897 4.42133 50.5897 3.56ZM56.5397 26H51.0997V8.32H56.5397V26Z" fill="black"/>
<path d="M69.9277 7.98C72.2851 7.98 74.2571 8.864 75.8437 10.632C77.4531 12.3773 78.2577 14.5533 78.2577 17.16C78.2577 19.7667 77.4531 21.954 75.8437 23.722C74.2571 25.4673 72.2851 26.34 69.9277 26.34C67.9104 26.34 66.2217 25.66 64.8617 24.3V26H59.4217V0.84H64.8617V10.02C66.2217 8.66 67.9104 7.98 69.9277 7.98ZM65.9497 20.186C66.6977 20.9793 67.6271 21.376 68.7377 21.376C69.8484 21.376 70.7664 20.9793 71.4917 20.186C72.2397 19.37 72.6137 18.3613 72.6137 17.16C72.6137 15.9587 72.2397 14.9613 71.4917 14.168C70.7664 13.352 69.8484 12.944 68.7377 12.944C67.6271 12.944 66.6977 13.352 65.9497 14.168C65.2244 14.9613 64.8617 15.9587 64.8617 17.16C64.8617 18.3613 65.2244 19.37 65.9497 20.186ZM87.9405 7.98C90.2979 7.98 92.1905 8.592 93.6185 9.816C95.0692 11.0173 95.7945 12.7967 95.7945 15.154V26H90.3545V24.266C89.0625 25.6487 87.3625 26.34 85.2545 26.34C83.5772 26.34 82.1832 25.8753 81.0725 24.946C79.9845 23.994 79.4405 22.736 79.4405 21.172C79.4405 17.7267 81.7979 15.7773 86.5125 15.324L88.9265 15.12C89.8785 15.052 90.3545 14.6667 90.3545 13.964C90.3545 13.5107 90.1279 13.1367 89.6745 12.842C89.2439 12.5473 88.6885 12.4 88.0085 12.4C87.2379 12.4 86.6259 12.604 86.1725 13.012C85.7192 13.42 85.4472 13.9527 85.3565 14.61L79.9505 13.454C80.1319 11.9353 80.9252 10.6433 82.3305 9.578C83.7585 8.51267 85.6285 7.98 87.9405 7.98ZM86.6485 22.09C87.6005 22.09 88.4505 21.75 89.1985 21.07C89.9692 20.39 90.3545 19.6307 90.3545 18.792V18.69C90.1279 18.8033 89.7085 18.894 89.0965 18.962L86.4785 19.268C85.4132 19.404 84.8805 19.88 84.8805 20.696C84.8805 21.1267 85.0279 21.4667 85.3225 21.716C85.6399 21.9653 86.0819 22.09 86.6485 22.09ZM109.221 7.98C111.306 7.98 112.984 8.64867 114.253 9.986C115.545 11.3233 116.191 13.046 116.191 15.154V26H110.751V16.174C110.751 15.1993 110.434 14.4173 109.799 13.828C109.187 13.216 108.371 12.91 107.351 12.91C106.354 12.91 105.538 13.216 104.903 13.828C104.268 14.4173 103.951 15.1993 103.951 16.174V26H98.5111V8.32H103.951V10.428C105.288 8.796 107.045 7.98 109.221 7.98ZM129.833 15.834L137.619 26H130.785L126.127 19.948L124.359 21.92V26H118.919V0.84H124.359V14.644L129.799 8.32H136.599L129.833 15.834Z" fill="#0CD68A"/>
</svg>
